<svg xmlns="http://www.w3.org/2000/svg" version="1.1" xmlns:xlink="http://www.w3.org/1999/xlink" xmlns:svgjs="http://svgjs.com/svgjs" width="512" height="512" x="0" y="0" viewBox="0 0 64 64" style="enable-background:new 0 0 512 512" xml:space="preserve" class=""><g><g xmlns="http://www.w3.org/2000/svg" id="_02-digital_economy" data-name="02-digital economy"><path d="M63,6H56V1a1,1,0,0,0-1-1H18a1,1,0,0,0-.707.293L11.586,6H1A1,1,0,0,0,0,7V51a1,1,0,0,0,1,1H22.719l-1.5,6H19a2,2,0,0,0-2,2v2a2,2,0,0,0,2,2H45a2,2,0,0,0,2-2V60a2,2,0,0,0-2-2H42.781l-1.5-6H63a1,1,0,0,0,1-1V7A1,1,0,0,0,63,6ZM62,8V44H56V8ZM54,44H10V11h8a1,1,0,0,0,1-1V2H54ZM11.414,9,17,3.414V9ZM9.586,8,8.293,9.293A1,1,0,0,0,8,10V44H2V8ZM45,62H19V60H45ZM23.281,58l1.5-6H39.219l1.5,6ZM40,50H2V46H62v4Z" fill="#000000" data-original="#000000"></path><path d="M31,32H30V29a1,1,0,0,0-1-1H27.274a8,8,0,1,0-10.548,0H13a1,1,0,0,0-1,1v4a1,1,0,0,0,1,1h1v2H13a1,1,0,0,0-1,1v4a1,1,0,0,0,1,1H29a1,1,0,0,0,1-1V38h1a1,1,0,0,0,1-1V33A1,1,0,0,0,31,32ZM16,22a6,6,0,1,1,6,6A6.006,6.006,0,0,1,16,22Zm-2,8H28v2H14ZM28,40H14V38H28Zm2-4H16V34H30Z" fill="#000000" data-original="#000000"></path><path d="M23,17H21v1H20a1,1,0,0,0-1,1v4h4v1H19v2h2v1h2V26h1a1,1,0,0,0,1-1V22a1,1,0,0,0-1-1H21V20h4V18H23Z" fill="#000000" data-original="#000000"></path><path d="M51,23H35a1,1,0,0,0-1,1V41a1,1,0,0,0,1,1H51a1,1,0,0,0,1-1V24A1,1,0,0,0,51,23Zm-1,2V36H48V29H46v7H44V27H42v9H40V31H38v5H36V25ZM36,40V38H50v2Z" fill="#000000" data-original="#000000"></path><path d="M43,16.586l-2.293-2.293a1,1,0,0,0-1.414,0l-5,5,1.414,1.414L40,16.414l2.293,2.293a1,1,0,0,0,1.414,0L50,12.414V14h2V10a.973.973,0,0,0-1-.991V9H47v2h1.586Z" fill="#000000" data-original="#000000"></path><rect x="21" y="4" width="23" height="2" fill="#000000" data-original="#000000"></rect><rect x="21" y="8" width="17" height="2" fill="#000000" data-original="#000000"></rect><rect x="40" y="8" width="4" height="2" fill="#000000" data-original="#000000"></rect></g></g></svg>