<svg xmlns="http://www.w3.org/2000/svg" viewBox="0 0 494.96 328.95"><title>Asset 1</title><g id="Layer_2" data-name="Layer 2"><g id="Layer_1-2" data-name="Layer 1"><path d="M246.74,55.61l-67.52,58.64q-70.2,61-140.4,121.94c-8.32,7.22-17.52,7.85-26.58,2.06-9.42-6-14.52-17.54-11.25-27.06a23.73,23.73,0,0,1,6.54-9.7q112.5-98,225.23-195.8c9-7.77,20.08-7.57,29.38.54L478.4,194.79c2.89,2.52,5.8,5,8.68,7.55,10,8.78,10.52,21.78,1.35,32.32-9,10.36-22.28,11.56-32.27,2.87L250.93,59.11C249.69,58,248.4,57,246.74,55.61Z"/><path d="M244.2,159.74l-56.56,49.17q-66,57.42-132,114.84c-9,7.8-20.57,6.72-28.76-2.58S19,299.8,28,292q100.7-87.6,201.42-175.19c9.14-8,20.3-8,29.39-.12q100.53,87.42,201,174.89c7.48,6.51,9.41,14.19,5.89,22.81-3.66,8.95-13.09,15.69-21.86,14.37A24.89,24.89,0,0,1,432.1,323q-67.14-58-134-116.38Z"/></g></g></svg>