<svg xmlns="http://www.w3.org/2000/svg" version="1.1" xmlns:xlink="http://www.w3.org/1999/xlink" xmlns:svgjs="http://svgjs.com/svgjs" width="512" height="512" x="0" y="0" viewBox="0 0 500 500" style="enable-background:new 0 0 512 512" xml:space="preserve" class=""><g><g xmlns="http://www.w3.org/2000/svg"><circle cx="401.639" cy="117.651" r="8.618" fill="#000000" data-original="#000000" class=""></circle><circle cx="367.951" cy="117.651" r="8.618" fill="#000000" data-original="#000000" class=""></circle><circle cx="334.264" cy="117.651" r="8.618" fill="#000000" data-original="#000000" class=""></circle><circle cx="216.438" cy="80.809" r="6.5" fill="#000000" data-original="#000000" class=""></circle><circle cx="173.472" cy="434.477" r="6.5" fill="#000000" data-original="#000000" class=""></circle><circle cx="334.441" cy="372.596" r="6.5" fill="#000000" data-original="#000000" class=""></circle><path d="m58.924 117.651c0 2.761 2.239 5 5 5h180.227c2.761 0 5-2.239 5-5s-2.239-5-5-5h-180.227c-2.761 0-5 2.239-5 5z" fill="#000000" data-original="#000000" class=""></path><path d="m168.598 210.819c2.761 0 5-2.239 5-5v-15.619c0-2.761-2.239-5-5-5s-5 2.239-5 5v15.62c0 2.761 2.238 4.999 5 4.999z" fill="#000000" data-original="#000000" class=""></path><path d="m139.95 231.456c4.369 0 6.616-5.455 3.536-8.536l-11.045-11.045c-1.953-1.952-5.118-1.952-7.071 0-1.953 1.953-1.953 5.119 0 7.071l11.045 11.045c.976.977 2.255 1.465 3.535 1.465z" fill="#000000" data-original="#000000" class=""></path><path d="m204.754 211.875-11.045 11.045c-1.847 1.847-1.939 4.906-.202 6.858 1.886 2.12 5.266 2.22 7.273.214l11.045-11.045c1.953-1.953 1.953-5.119 0-7.071-1.953-1.953-5.118-1.953-7.071-.001z" fill="#000000" data-original="#000000" class=""></path><path d="m214.438 337.168v51.044h-7.497c-2.761 0-5 2.239-5 5s2.239 5 5 5h213.678c2.761 0 5-2.239 5-5s-2.239-5-5-5h-7.995v-113.893c0-2.761-2.239-5-5-5h-41.819c-2.761 0-5 2.239-5 5v113.893h-94.548v-51.044c0-2.761-2.239-5-5-5h-41.819c-2.761 0-5 2.239-5 5zm156.367-57.849h31.819v108.893h-31.819zm-114.548 62.849v46.044h-31.819v-46.044z" fill="#000000" data-original="#000000" class=""></path><path d="m334.441 357.767c2.761 0 5-2.239 5-5v-47.023c0-2.761-2.239-5-5-5h-41.819c-2.761 0-5 2.239-5 5v57.023c0 2.761 2.239 5 5 5s5-2.239 5-5v-52.023h31.819v42.023c0 2.761 2.239 5 5 5z" fill="#000000" data-original="#000000" class=""></path><path d="m288.645 235.808c-1.914-1.143-4.35-.881-5.977.638l-58.331 54.461c-1.834 1.713-2.102 4.618-.604 6.634 1.755 2.361 5.277 2.684 7.428.676l55.583-51.895 51.127 30.543c1.988 1.188 4.532.854 6.147-.805l48.193-49.511-1.136 8.64c-.349 2.651 1.531 5.168 4.171 5.587 2.743.436 5.382-1.528 5.744-4.285l3.098-23.568c.421-3.203-2.406-6.033-5.613-5.608l-23.518 3.11c-2.738.362-4.664 2.875-4.302 5.612.363 2.738 2.878 4.666 5.612 4.302l9.219-1.219-45.88 47.134z" fill="#000000" data-original="#000000" class=""></path><path d="m499.748 4.99c-.006-2.757-2.243-4.99-5-4.99h-252.71c-2.761 0-5 2.239-5 5v89.982c0 2.761 2.239 5 5 5h215.664l33.99 29.99c3.159 2.788 8.316.449 8.308-3.759zm-36.848 86.243c-.914-.806-2.09-1.251-3.308-1.251h-212.554v-79.982h242.72l.219 105.124z" fill="#000000" data-original="#000000" class=""></path><path d="m442.01 118.982c0-2.761-2.239-5-5-5s-5 2.239-5 5v30.51h-397.615v-63.683h157.643c2.761 0 5-2.239 5-5s-2.239-5-5-5h-162.643c-2.761 0-5 2.239-5 5l.051 307.771h-19.446c-2.761 0-5 2.239-5 5v101.42c0 2.761 2.239 5 5 5h40.284c2.761 0 5-2.239 5-5v-91.887c14.232-8.589 26.681-19.528 37.031-32.554l16.111-20.28c5.893 10.315 5.454 23.215-1.197 33.115l-5.199 7.739c-2.182 3.248.265 7.788 4.15 7.788h48.112c4.192 0 7.603 3.421 7.603 7.626s-3.411 7.626-7.603 7.626h-27.104c-2.761 0-5 2.239-5 5s2.239 5 5 5h18.356c4.227 0 7.715 3.628 7.6 7.844-.112 4.085-3.639 7.409-7.862 7.409h-24.832c-2.761 0-5 2.239-5 5s2.239 5 5 5h16.347c4.192 0 7.603 3.421 7.603 7.626s-3.411 7.626-7.603 7.626h-26.456c-2.761 0-5 2.239-5 5s2.239 5 5 5h17.708c4.192 0 7.603 3.421 7.603 7.626s-3.411 7.626-7.603 7.626h-19.949c-12.216 0-24.543-.912-36.639-2.711-2.733-.406-5.275 1.479-5.681 4.21s1.479 5.275 4.21 5.681c12.581 1.871 25.403 2.819 38.11 2.819h19.95c9.706 0 17.603-7.907 17.603-17.626 0-3.227-.87-6.254-2.389-8.858 6.516-2.586 11.136-8.96 11.136-16.395 0-3.256-.886-6.309-2.43-8.929 6.369-2.579 10.976-8.704 11.171-15.833.091-3.339-.735-6.551-2.371-9.354 6.51-2.589 11.125-8.96 11.125-16.39 0-9.719-7.896-17.626-17.603-17.626h-38.729c8.958-13.375 9.328-30.887.939-44.631-.752-1.232-1.773-2.246-2.956-3.003l-.039-181.796h323.504l.058 269.985h-239.218c-2.761 0-5 2.239-5 5s2.239 5 5 5h244.22c2.701 0 5.001-2.294 5-5.001zm-401.726 371.018h-30.284v-91.42h30.284zm58.263-148.77c-.896.559-1.707 1.264-2.381 2.112l-16.681 20.997c-8.44 10.623-18.387 19.747-29.637 27.214-.779-1.749-2.525-2.973-4.563-2.973h-10.84l-.05-229.087h64.112z" fill="#000000" data-original="#000000" class=""></path><path d="m25.142 462.522c-2.761 0-5 2.239-5 5v7.51c0 2.761 2.239 5 5 5s5-2.239 5-5v-7.51c0-2.761-2.239-5-5-5z" fill="#000000" data-original="#000000" class=""></path><circle cx="66.481" cy="272.131" r="8.618" fill="#000000" data-original="#000000" class=""></circle><circle cx="66.481" cy="327.09" r="8.618" fill="#000000" data-original="#000000" class=""></circle><circle cx="66.481" cy="217.172" r="8.618" fill="#000000" data-original="#000000" class=""></circle><path d="m149.292 299.279 19.306-10.149 19.305 10.149c3.598 1.889 7.941-1.27 7.255-5.271l-3.687-21.496 15.618-15.224c2.898-2.825 1.236-7.946-2.771-8.529l-21.583-3.136-9.652-19.559c-1.791-3.629-7.176-3.631-8.968 0l-9.653 19.559-21.583 3.136c-4.005.582-5.671 5.702-2.771 8.529l15.618 15.224-3.687 21.496c-.57 4.461 3.774 7.148 7.253 5.271zm-4.951-42.08 14.159-2.057c1.629-.237 3.037-1.26 3.765-2.735l6.333-12.831 6.332 12.831c.729 1.476 2.136 2.499 3.765 2.735l14.159 2.057-10.246 9.987c-1.178 1.149-1.716 2.804-1.438 4.426l2.419 14.102-12.665-6.658c-1.457-.766-3.197-.766-4.653 0l-12.665 6.658 2.419-14.102c.278-1.622-.26-3.277-1.438-4.426z" fill="#000000" data-original="#000000" class=""></path><path d="m394.489 39.39-14.663-2.147-6.565-13.402c-1.785-3.647-7.194-3.649-8.98 0l-6.565 13.402-14.663 2.147c-3.994.584-5.66 5.685-2.779 8.515l10.633 10.443-2.512 14.756c-.679 3.994 3.687 7.153 7.27 5.257l13.106-6.943 13.106 6.943c3.585 1.899 7.949-1.26 7.27-5.257l-2.511-14.756 10.633-10.444c2.878-2.828 1.216-7.93-2.78-8.514zm-16.725 13.654c-1.167 1.146-1.7 2.792-1.425 4.406l1.246 7.321-6.474-3.429c-.732-.388-1.536-.582-2.34-.582s-1.608.194-2.34.582l-6.473 3.429 1.246-7.321c.274-1.613-.258-3.259-1.426-4.406l-5.313-5.219 7.308-1.07c1.631-.239 3.041-1.267 3.766-2.748l3.233-6.601 3.233 6.601c.725 1.481 2.134 2.509 3.766 2.748l7.308 1.07z" fill="#000000" data-original="#000000" class=""></path><path d="m315.343 39.39-14.663-2.147-6.565-13.402c-1.785-3.647-7.194-3.649-8.98 0l-6.565 13.402-14.663 2.147c-3.994.584-5.66 5.684-2.779 8.514l10.633 10.444-2.511 14.756c-.679 3.995 3.683 7.157 7.27 5.257l13.106-6.943 13.106 6.943c3.58 1.896 7.949-1.261 7.27-5.257l-2.512-14.756 10.633-10.443c2.878-2.828 1.216-7.931-2.78-8.515zm-16.725 13.654c-1.168 1.147-1.7 2.793-1.426 4.406l1.246 7.321-6.473-3.429c-1.464-.775-3.217-.775-4.681 0l-6.474 3.429 1.246-7.321c.274-1.613-.258-3.259-1.425-4.406l-5.313-5.219 7.308-1.07c1.631-.239 3.041-1.267 3.766-2.748l3.233-6.601 3.233 6.601c.725 1.481 2.134 2.509 3.766 2.748l7.308 1.07z" fill="#000000" data-original="#000000" class=""></path><path d="m473.636 39.39-14.663-2.147-6.565-13.402c-1.785-3.647-7.194-3.649-8.98 0l-6.564 13.402-14.664 2.147c-3.994.584-5.66 5.685-2.779 8.515l10.633 10.443-2.512 14.756c-.679 3.994 3.687 7.153 7.27 5.257l13.106-6.943 13.107 6.943c3.585 1.899 7.949-1.261 7.27-5.257l-2.512-14.756 10.633-10.444c2.878-2.828 1.216-7.93-2.78-8.514zm-16.725 13.654c-1.167 1.146-1.7 2.792-1.425 4.406l1.246 7.321-6.474-3.429c-.732-.388-1.536-.582-2.34-.582s-1.608.194-2.34.582l-6.473 3.429 1.246-7.321c.274-1.613-.258-3.259-1.426-4.406l-5.313-5.219 7.308-1.07c1.631-.239 3.041-1.267 3.766-2.748l3.233-6.601 3.233 6.601c.725 1.481 2.134 2.509 3.766 2.748l7.308 1.07z" fill="#000000" data-original="#000000" class=""></path></g></g></svg>